<?xml version="1.0" encoding="utf-8" standalone="no"?>
<!DOCTYPE svg PUBLIC "-//W3C//DTD SVG 1.1//EN"
  "http://www.w3.org/Graphics/SVG/1.1/DTD/svg11.dtd">
<svg xmlns:xlink="http://www.w3.org/1999/xlink" width="1061.74375pt" height="712.194375pt" viewBox="0 0 1061.74375 712.194375" xmlns="http://www.w3.org/2000/svg" version="1.1">
 <metadata>
  <rdf:RDF xmlns:dc="http://purl.org/dc/elements/1.1/" xmlns:cc="http://creativecommons.org/ns#" xmlns:rdf="http://www.w3.org/1999/02/22-rdf-syntax-ns#">
   <cc:Work>
    <dc:type rdf:resource="http://purl.org/dc/dcmitype/StillImage"/>
    <dc:date>2021-12-29T12:46:14.798297</dc:date>
    <dc:format>image/svg+xml</dc:format>
    <dc:creator>
     <cc:Agent>
      <dc:title>Matplotlib v3.5.0, https://matplotlib.org/</dc:title>
     </cc:Agent>
    </dc:creator>
   </cc:Work>
  </rdf:RDF>
 </metadata>
 <defs>
  <style type="text/css">*{stroke-linejoin: round; stroke-linecap: butt}</style>
 </defs>
 <g id="figure_1">
  <g id="patch_1">
   <path d="M 0 712.194375 
L 1061.74375 712.194375 
L 1061.74375 0 
L 0 0 
L 0 712.194375 
z
" style="fill: none"/>
  </g>
  <g id="axes_1">
   <g id="patch_2">
    <path d="M 50.14375 674.638125 
L 1054.54375 674.638125 
L 1054.54375 22.318125 
L 50.14375 22.318125 
z
" style="fill: #ffffff"/>
   </g>
   <g id="matplotlib.axis_1">
    <g id="xtick_1">
     <g id="line2d_1">
      <defs>
       <path id="m4710080ec5" d="M 0 0 
L 0 3.5 
" style="stroke: #000000; stroke-width: 0.8"/>
      </defs>
      <g>
       <use xlink:href="#m4710080ec5" x="95.798295" y="674.638125" style="stroke: #000000; stroke-width: 0.8"/>
      </g>
     </g>
     <g id="text_1">
      <!-- 0 -->
      <g transform="translate(92.617045 689.236562)scale(0.1 -0.1)">
       <defs>
        <path id="DejaVuSans-30" d="M 2034 4250 
Q 1547 4250 1301 3770 
Q 1056 3291 1056 2328 
Q 1056 1369 1301 889 
Q 1547 409 2034 409 
Q 2525 409 2770 889 
Q 3016 1369 3016 2328 
Q 3016 3291 2770 3770 
Q 2525 4250 2034 4250 
z
M 2034 4750 
Q 2819 4750 3233 4129 
Q 3647 3509 3647 2328 
Q 3647 1150 3233 529 
Q 2819 -91 2034 -91 
Q 1250 -91 836 529 
Q 422 1150 422 2328 
Q 422 3509 836 4129 
Q 1250 4750 2034 4750 
z
" transform="scale(0.015625)"/>
       </defs>
       <use xlink:href="#DejaVuSans-30"/>
      </g>
     </g>
    </g>
    <g id="xtick_2">
     <g id="line2d_2">
      <g>
       <use xlink:href="#m4710080ec5" x="300.987264" y="674.638125" style="stroke: #000000; stroke-width: 0.8"/>
      </g>
     </g>
     <g id="text_2">
      <!-- 100 -->
      <g transform="translate(291.443514 689.236562)scale(0.1 -0.1)">
       <defs>
        <path id="DejaVuSans-31" d="M 794 531 
L 1825 531 
L 1825 4091 
L 703 3866 
L 703 4441 
L 1819 4666 
L 2450 4666 
L 2450 531 
L 3481 531 
L 3481 0 
L 794 0 
L 794 531 
z
" transform="scale(0.015625)"/>
       </defs>
       <use xlink:href="#DejaVuSans-31"/>
       <use xlink:href="#DejaVuSans-30" x="63.623047"/>
       <use xlink:href="#DejaVuSans-30" x="127.246094"/>
      </g>
     </g>
    </g>
    <g id="xtick_3">
     <g id="line2d_3">
      <g>
       <use xlink:href="#m4710080ec5" x="506.176232" y="674.638125" style="stroke: #000000; stroke-width: 0.8"/>
      </g>
     </g>
     <g id="text_3">
      <!-- 200 -->
      <g transform="translate(496.632482 689.236562)scale(0.1 -0.1)">
       <defs>
        <path id="DejaVuSans-32" d="M 1228 531 
L 3431 531 
L 3431 0 
L 469 0 
L 469 531 
Q 828 903 1448 1529 
Q 2069 2156 2228 2338 
Q 2531 2678 2651 2914 
Q 2772 3150 2772 3378 
Q 2772 3750 2511 3984 
Q 2250 4219 1831 4219 
Q 1534 4219 1204 4116 
Q 875 4013 500 3803 
L 500 4441 
Q 881 4594 1212 4672 
Q 1544 4750 1819 4750 
Q 2544 4750 2975 4387 
Q 3406 4025 3406 3419 
Q 3406 3131 3298 2873 
Q 3191 2616 2906 2266 
Q 2828 2175 2409 1742 
Q 1991 1309 1228 531 
z
" transform="scale(0.015625)"/>
       </defs>
       <use xlink:href="#DejaVuSans-32"/>
       <use xlink:href="#DejaVuSans-30" x="63.623047"/>
       <use xlink:href="#DejaVuSans-30" x="127.246094"/>
      </g>
     </g>
    </g>
    <g id="xtick_4">
     <g id="line2d_4">
      <g>
       <use xlink:href="#m4710080ec5" x="711.3652" y="674.638125" style="stroke: #000000; stroke-width: 0.8"/>
      </g>
     </g>
     <g id="text_4">
      <!-- 300 -->
      <g transform="translate(701.82145 689.236562)scale(0.1 -0.1)">
       <defs>
        <path id="DejaVuSans-33" d="M 2597 2516 
Q 3050 2419 3304 2112 
Q 3559 1806 3559 1356 
Q 3559 666 3084 287 
Q 2609 -91 1734 -91 
Q 1441 -91 1130 -33 
Q 819 25 488 141 
L 488 750 
Q 750 597 1062 519 
Q 1375 441 1716 441 
Q 2309 441 2620 675 
Q 2931 909 2931 1356 
Q 2931 1769 2642 2001 
Q 2353 2234 1838 2234 
L 1294 2234 
L 1294 2753 
L 1863 2753 
Q 2328 2753 2575 2939 
Q 2822 3125 2822 3475 
Q 2822 3834 2567 4026 
Q 2313 4219 1838 4219 
Q 1578 4219 1281 4162 
Q 984 4106 628 3988 
L 628 4550 
Q 988 4650 1302 4700 
Q 1616 4750 1894 4750 
Q 2613 4750 3031 4423 
Q 3450 4097 3450 3541 
Q 3450 3153 3228 2886 
Q 3006 2619 2597 2516 
z
" transform="scale(0.015625)"/>
       </defs>
       <use xlink:href="#DejaVuSans-33"/>
       <use xlink:href="#DejaVuSans-30" x="63.623047"/>
       <use xlink:href="#DejaVuSans-30" x="127.246094"/>
      </g>
     </g>
    </g>
    <g id="xtick_5">
     <g id="line2d_5">
      <g>
       <use xlink:href="#m4710080ec5" x="916.554169" y="674.638125" style="stroke: #000000; stroke-width: 0.8"/>
      </g>
     </g>
     <g id="text_5">
      <!-- 400 -->
      <g transform="translate(907.010419 689.236562)scale(0.1 -0.1)">
       <defs>
        <path id="DejaVuSans-34" d="M 2419 4116 
L 825 1625 
L 2419 1625 
L 2419 4116 
z
M 2253 4666 
L 3047 4666 
L 3047 1625 
L 3713 1625 
L 3713 1100 
L 3047 1100 
L 3047 0 
L 2419 0 
L 2419 1100 
L 313 1100 
L 313 1709 
L 2253 4666 
z
" transform="scale(0.015625)"/>
       </defs>
       <use xlink:href="#DejaVuSans-34"/>
       <use xlink:href="#DejaVuSans-30" x="63.623047"/>
       <use xlink:href="#DejaVuSans-30" x="127.246094"/>
      </g>
     </g>
    </g>
    <g id="text_6">
     <!-- Trading Days -->
     <g transform="translate(519.934375 702.914687)scale(0.1 -0.1)">
      <defs>
       <path id="DejaVuSans-54" d="M -19 4666 
L 3928 4666 
L 3928 4134 
L 2272 4134 
L 2272 0 
L 1638 0 
L 1638 4134 
L -19 4134 
L -19 4666 
z
" transform="scale(0.015625)"/>
       <path id="DejaVuSans-72" d="M 2631 2963 
Q 2534 3019 2420 3045 
Q 2306 3072 2169 3072 
Q 1681 3072 1420 2755 
Q 1159 2438 1159 1844 
L 1159 0 
L 581 0 
L 581 3500 
L 1159 3500 
L 1159 2956 
Q 1341 3275 1631 3429 
Q 1922 3584 2338 3584 
Q 2397 3584 2469 3576 
Q 2541 3569 2628 3553 
L 2631 2963 
z
" transform="scale(0.015625)"/>
       <path id="DejaVuSans-61" d="M 2194 1759 
Q 1497 1759 1228 1600 
Q 959 1441 959 1056 
Q 959 750 1161 570 
Q 1363 391 1709 391 
Q 2188 391 2477 730 
Q 2766 1069 2766 1631 
L 2766 1759 
L 2194 1759 
z
M 3341 1997 
L 3341 0 
L 2766 0 
L 2766 531 
Q 2569 213 2275 61 
Q 1981 -91 1556 -91 
Q 1019 -91 701 211 
Q 384 513 384 1019 
Q 384 1609 779 1909 
Q 1175 2209 1959 2209 
L 2766 2209 
L 2766 2266 
Q 2766 2663 2505 2880 
Q 2244 3097 1772 3097 
Q 1472 3097 1187 3025 
Q 903 2953 641 2809 
L 641 3341 
Q 956 3463 1253 3523 
Q 1550 3584 1831 3584 
Q 2591 3584 2966 3190 
Q 3341 2797 3341 1997 
z
" transform="scale(0.015625)"/>
       <path id="DejaVuSans-64" d="M 2906 2969 
L 2906 4863 
L 3481 4863 
L 3481 0 
L 2906 0 
L 2906 525 
Q 2725 213 2448 61 
Q 2172 -91 1784 -91 
Q 1150 -91 751 415 
Q 353 922 353 1747 
Q 353 2572 751 3078 
Q 1150 3584 1784 3584 
Q 2172 3584 2448 3432 
Q 2725 3281 2906 2969 
z
M 947 1747 
Q 947 1113 1208 752 
Q 1469 391 1925 391 
Q 2381 391 2643 752 
Q 2906 1113 2906 1747 
Q 2906 2381 2643 2742 
Q 2381 3103 1925 3103 
Q 1469 3103 1208 2742 
Q 947 2381 947 1747 
z
" transform="scale(0.015625)"/>
       <path id="DejaVuSans-69" d="M 603 3500 
L 1178 3500 
L 1178 0 
L 603 0 
L 603 3500 
z
M 603 4863 
L 1178 4863 
L 1178 4134 
L 603 4134 
L 603 4863 
z
" transform="scale(0.015625)"/>
       <path id="DejaVuSans-6e" d="M 3513 2113 
L 3513 0 
L 2938 0 
L 2938 2094 
Q 2938 2591 2744 2837 
Q 2550 3084 2163 3084 
Q 1697 3084 1428 2787 
Q 1159 2491 1159 1978 
L 1159 0 
L 581 0 
L 581 3500 
L 1159 3500 
L 1159 2956 
Q 1366 3272 1645 3428 
Q 1925 3584 2291 3584 
Q 2894 3584 3203 3211 
Q 3513 2838 3513 2113 
z
" transform="scale(0.015625)"/>
       <path id="DejaVuSans-67" d="M 2906 1791 
Q 2906 2416 2648 2759 
Q 2391 3103 1925 3103 
Q 1463 3103 1205 2759 
Q 947 2416 947 1791 
Q 947 1169 1205 825 
Q 1463 481 1925 481 
Q 2391 481 2648 825 
Q 2906 1169 2906 1791 
z
M 3481 434 
Q 3481 -459 3084 -895 
Q 2688 -1331 1869 -1331 
Q 1566 -1331 1297 -1286 
Q 1028 -1241 775 -1147 
L 775 -588 
Q 1028 -725 1275 -790 
Q 1522 -856 1778 -856 
Q 2344 -856 2625 -561 
Q 2906 -266 2906 331 
L 2906 616 
Q 2728 306 2450 153 
Q 2172 0 1784 0 
Q 1141 0 747 490 
Q 353 981 353 1791 
Q 353 2603 747 3093 
Q 1141 3584 1784 3584 
Q 2172 3584 2450 3431 
Q 2728 3278 2906 2969 
L 2906 3500 
L 3481 3500 
L 3481 434 
z
" transform="scale(0.015625)"/>
       <path id="DejaVuSans-20" transform="scale(0.015625)"/>
       <path id="DejaVuSans-44" d="M 1259 4147 
L 1259 519 
L 2022 519 
Q 2988 519 3436 956 
Q 3884 1394 3884 2338 
Q 3884 3275 3436 3711 
Q 2988 4147 2022 4147 
L 1259 4147 
z
M 628 4666 
L 1925 4666 
Q 3281 4666 3915 4102 
Q 4550 3538 4550 2338 
Q 4550 1131 3912 565 
Q 3275 0 1925 0 
L 628 0 
L 628 4666 
z
" transform="scale(0.015625)"/>
       <path id="DejaVuSans-79" d="M 2059 -325 
Q 1816 -950 1584 -1140 
Q 1353 -1331 966 -1331 
L 506 -1331 
L 506 -850 
L 844 -850 
Q 1081 -850 1212 -737 
Q 1344 -625 1503 -206 
L 1606 56 
L 191 3500 
L 800 3500 
L 1894 763 
L 2988 3500 
L 3597 3500 
L 2059 -325 
z
" transform="scale(0.015625)"/>
       <path id="DejaVuSans-73" d="M 2834 3397 
L 2834 2853 
Q 2591 2978 2328 3040 
Q 2066 3103 1784 3103 
Q 1356 3103 1142 2972 
Q 928 2841 928 2578 
Q 928 2378 1081 2264 
Q 1234 2150 1697 2047 
L 1894 2003 
Q 2506 1872 2764 1633 
Q 3022 1394 3022 966 
Q 3022 478 2636 193 
Q 2250 -91 1575 -91 
Q 1294 -91 989 -36 
Q 684 19 347 128 
L 347 722 
Q 666 556 975 473 
Q 1284 391 1588 391 
Q 1994 391 2212 530 
Q 2431 669 2431 922 
Q 2431 1156 2273 1281 
Q 2116 1406 1581 1522 
L 1381 1569 
Q 847 1681 609 1914 
Q 372 2147 372 2553 
Q 372 3047 722 3315 
Q 1072 3584 1716 3584 
Q 2034 3584 2315 3537 
Q 2597 3491 2834 3397 
z
" transform="scale(0.015625)"/>
      </defs>
      <use xlink:href="#DejaVuSans-54"/>
      <use xlink:href="#DejaVuSans-72" x="46.333984"/>
      <use xlink:href="#DejaVuSans-61" x="87.447266"/>
      <use xlink:href="#DejaVuSans-64" x="148.726562"/>
      <use xlink:href="#DejaVuSans-69" x="212.203125"/>
      <use xlink:href="#DejaVuSans-6e" x="239.986328"/>
      <use xlink:href="#DejaVuSans-67" x="303.365234"/>
      <use xlink:href="#DejaVuSans-20" x="366.841797"/>
      <use xlink:href="#DejaVuSans-44" x="398.628906"/>
      <use xlink:href="#DejaVuSans-61" x="475.630859"/>
      <use xlink:href="#DejaVuSans-79" x="536.910156"/>
      <use xlink:href="#DejaVuSans-73" x="596.089844"/>
     </g>
    </g>
   </g>
   <g id="matplotlib.axis_2">
    <g id="ytick_1">
     <g id="line2d_6">
      <defs>
       <path id="maa36a49ccd" d="M 0 0 
L -3.5 0 
" style="stroke: #000000; stroke-width: 0.8"/>
      </defs>
      <g>
       <use xlink:href="#maa36a49ccd" x="50.14375" y="644.987216" style="stroke: #000000; stroke-width: 0.8"/>
      </g>
     </g>
     <g id="text_7">
      <!-- 0.00 -->
      <g transform="translate(20.878125 648.786435)scale(0.1 -0.1)">
       <defs>
        <path id="DejaVuSans-2e" d="M 684 794 
L 1344 794 
L 1344 0 
L 684 0 
L 684 794 
z
" transform="scale(0.015625)"/>
       </defs>
       <use xlink:href="#DejaVuSans-30"/>
       <use xlink:href="#DejaVuSans-2e" x="63.623047"/>
       <use xlink:href="#DejaVuSans-30" x="95.410156"/>
       <use xlink:href="#DejaVuSans-30" x="159.033203"/>
      </g>
     </g>
    </g>
    <g id="ytick_2">
     <g id="line2d_7">
      <g>
       <use xlink:href="#maa36a49ccd" x="50.14375" y="510.472658" style="stroke: #000000; stroke-width: 0.8"/>
      </g>
     </g>
     <g id="text_8">
      <!-- 0.02 -->
      <g transform="translate(20.878125 514.271877)scale(0.1 -0.1)">
       <use xlink:href="#DejaVuSans-30"/>
       <use xlink:href="#DejaVuSans-2e" x="63.623047"/>
       <use xlink:href="#DejaVuSans-30" x="95.410156"/>
       <use xlink:href="#DejaVuSans-32" x="159.033203"/>
      </g>
     </g>
    </g>
    <g id="ytick_3">
     <g id="line2d_8">
      <g>
       <use xlink:href="#maa36a49ccd" x="50.14375" y="375.9581" style="stroke: #000000; stroke-width: 0.8"/>
      </g>
     </g>
     <g id="text_9">
      <!-- 0.04 -->
      <g transform="translate(20.878125 379.757318)scale(0.1 -0.1)">
       <use xlink:href="#DejaVuSans-30"/>
       <use xlink:href="#DejaVuSans-2e" x="63.623047"/>
       <use xlink:href="#DejaVuSans-30" x="95.410156"/>
       <use xlink:href="#DejaVuSans-34" x="159.033203"/>
      </g>
     </g>
    </g>
    <g id="ytick_4">
     <g id="line2d_9">
      <g>
       <use xlink:href="#maa36a49ccd" x="50.14375" y="241.443542" style="stroke: #000000; stroke-width: 0.8"/>
      </g>
     </g>
     <g id="text_10">
      <!-- 0.06 -->
      <g transform="translate(20.878125 245.24276)scale(0.1 -0.1)">
       <defs>
        <path id="DejaVuSans-36" d="M 2113 2584 
Q 1688 2584 1439 2293 
Q 1191 2003 1191 1497 
Q 1191 994 1439 701 
Q 1688 409 2113 409 
Q 2538 409 2786 701 
Q 3034 994 3034 1497 
Q 3034 2003 2786 2293 
Q 2538 2584 2113 2584 
z
M 3366 4563 
L 3366 3988 
Q 3128 4100 2886 4159 
Q 2644 4219 2406 4219 
Q 1781 4219 1451 3797 
Q 1122 3375 1075 2522 
Q 1259 2794 1537 2939 
Q 1816 3084 2150 3084 
Q 2853 3084 3261 2657 
Q 3669 2231 3669 1497 
Q 3669 778 3244 343 
Q 2819 -91 2113 -91 
Q 1303 -91 875 529 
Q 447 1150 447 2328 
Q 447 3434 972 4092 
Q 1497 4750 2381 4750 
Q 2619 4750 2861 4703 
Q 3103 4656 3366 4563 
z
" transform="scale(0.015625)"/>
       </defs>
       <use xlink:href="#DejaVuSans-30"/>
       <use xlink:href="#DejaVuSans-2e" x="63.623047"/>
       <use xlink:href="#DejaVuSans-30" x="95.410156"/>
       <use xlink:href="#DejaVuSans-36" x="159.033203"/>
      </g>
     </g>
    </g>
    <g id="ytick_5">
     <g id="line2d_10">
      <g>
       <use xlink:href="#maa36a49ccd" x="50.14375" y="106.928984" style="stroke: #000000; stroke-width: 0.8"/>
      </g>
     </g>
     <g id="text_11">
      <!-- 0.08 -->
      <g transform="translate(20.878125 110.728202)scale(0.1 -0.1)">
       <defs>
        <path id="DejaVuSans-38" d="M 2034 2216 
Q 1584 2216 1326 1975 
Q 1069 1734 1069 1313 
Q 1069 891 1326 650 
Q 1584 409 2034 409 
Q 2484 409 2743 651 
Q 3003 894 3003 1313 
Q 3003 1734 2745 1975 
Q 2488 2216 2034 2216 
z
M 1403 2484 
Q 997 2584 770 2862 
Q 544 3141 544 3541 
Q 544 4100 942 4425 
Q 1341 4750 2034 4750 
Q 2731 4750 3128 4425 
Q 3525 4100 3525 3541 
Q 3525 3141 3298 2862 
Q 3072 2584 2669 2484 
Q 3125 2378 3379 2068 
Q 3634 1759 3634 1313 
Q 3634 634 3220 271 
Q 2806 -91 2034 -91 
Q 1263 -91 848 271 
Q 434 634 434 1313 
Q 434 1759 690 2068 
Q 947 2378 1403 2484 
z
M 1172 3481 
Q 1172 3119 1398 2916 
Q 1625 2713 2034 2713 
Q 2441 2713 2670 2916 
Q 2900 3119 2900 3481 
Q 2900 3844 2670 4047 
Q 2441 4250 2034 4250 
Q 1625 4250 1398 4047 
Q 1172 3844 1172 3481 
z
" transform="scale(0.015625)"/>
       </defs>
       <use xlink:href="#DejaVuSans-30"/>
       <use xlink:href="#DejaVuSans-2e" x="63.623047"/>
       <use xlink:href="#DejaVuSans-30" x="95.410156"/>
       <use xlink:href="#DejaVuSans-38" x="159.033203"/>
      </g>
     </g>
    </g>
    <g id="text_12">
     <!-- Price USD -->
     <g transform="translate(14.798438 372.948437)rotate(-90)scale(0.1 -0.1)">
      <defs>
       <path id="DejaVuSans-50" d="M 1259 4147 
L 1259 2394 
L 2053 2394 
Q 2494 2394 2734 2622 
Q 2975 2850 2975 3272 
Q 2975 3691 2734 3919 
Q 2494 4147 2053 4147 
L 1259 4147 
z
M 628 4666 
L 2053 4666 
Q 2838 4666 3239 4311 
Q 3641 3956 3641 3272 
Q 3641 2581 3239 2228 
Q 2838 1875 2053 1875 
L 1259 1875 
L 1259 0 
L 628 0 
L 628 4666 
z
" transform="scale(0.015625)"/>
       <path id="DejaVuSans-63" d="M 3122 3366 
L 3122 2828 
Q 2878 2963 2633 3030 
Q 2388 3097 2138 3097 
Q 1578 3097 1268 2742 
Q 959 2388 959 1747 
Q 959 1106 1268 751 
Q 1578 397 2138 397 
Q 2388 397 2633 464 
Q 2878 531 3122 666 
L 3122 134 
Q 2881 22 2623 -34 
Q 2366 -91 2075 -91 
Q 1284 -91 818 406 
Q 353 903 353 1747 
Q 353 2603 823 3093 
Q 1294 3584 2113 3584 
Q 2378 3584 2631 3529 
Q 2884 3475 3122 3366 
z
" transform="scale(0.015625)"/>
       <path id="DejaVuSans-65" d="M 3597 1894 
L 3597 1613 
L 953 1613 
Q 991 1019 1311 708 
Q 1631 397 2203 397 
Q 2534 397 2845 478 
Q 3156 559 3463 722 
L 3463 178 
Q 3153 47 2828 -22 
Q 2503 -91 2169 -91 
Q 1331 -91 842 396 
Q 353 884 353 1716 
Q 353 2575 817 3079 
Q 1281 3584 2069 3584 
Q 2775 3584 3186 3129 
Q 3597 2675 3597 1894 
z
M 3022 2063 
Q 3016 2534 2758 2815 
Q 2500 3097 2075 3097 
Q 1594 3097 1305 2825 
Q 1016 2553 972 2059 
L 3022 2063 
z
" transform="scale(0.015625)"/>
       <path id="DejaVuSans-55" d="M 556 4666 
L 1191 4666 
L 1191 1831 
Q 1191 1081 1462 751 
Q 1734 422 2344 422 
Q 2950 422 3222 751 
Q 3494 1081 3494 1831 
L 3494 4666 
L 4128 4666 
L 4128 1753 
Q 4128 841 3676 375 
Q 3225 -91 2344 -91 
Q 1459 -91 1007 375 
Q 556 841 556 1753 
L 556 4666 
z
" transform="scale(0.015625)"/>
       <path id="DejaVuSans-53" d="M 3425 4513 
L 3425 3897 
Q 3066 4069 2747 4153 
Q 2428 4238 2131 4238 
Q 1616 4238 1336 4038 
Q 1056 3838 1056 3469 
Q 1056 3159 1242 3001 
Q 1428 2844 1947 2747 
L 2328 2669 
Q 3034 2534 3370 2195 
Q 3706 1856 3706 1288 
Q 3706 609 3251 259 
Q 2797 -91 1919 -91 
Q 1588 -91 1214 -16 
Q 841 59 441 206 
L 441 856 
Q 825 641 1194 531 
Q 1563 422 1919 422 
Q 2459 422 2753 634 
Q 3047 847 3047 1241 
Q 3047 1584 2836 1778 
Q 2625 1972 2144 2069 
L 1759 2144 
Q 1053 2284 737 2584 
Q 422 2884 422 3419 
Q 422 4038 858 4394 
Q 1294 4750 2059 4750 
Q 2388 4750 2728 4690 
Q 3069 4631 3425 4513 
z
" transform="scale(0.015625)"/>
      </defs>
      <use xlink:href="#DejaVuSans-50"/>
      <use xlink:href="#DejaVuSans-72" x="58.552734"/>
      <use xlink:href="#DejaVuSans-69" x="99.666016"/>
      <use xlink:href="#DejaVuSans-63" x="127.449219"/>
      <use xlink:href="#DejaVuSans-65" x="182.429688"/>
      <use xlink:href="#DejaVuSans-20" x="243.953125"/>
      <use xlink:href="#DejaVuSans-55" x="275.740234"/>
      <use xlink:href="#DejaVuSans-53" x="348.933594"/>
      <use xlink:href="#DejaVuSans-44" x="412.410156"/>
     </g>
    </g>
   </g>
   <g id="line2d_11">
    <path d="M 95.798295 284.511359 
L 97.850185 310.566476 
L 99.902075 324.73053 
L 101.953965 330.191035 
L 104.005854 326.559925 
L 106.057744 314.57177 
L 108.109634 310.857535 
L 110.161523 310.857535 
L 112.213413 319.242305 
L 114.265303 313.296728 
L 116.317192 310.954543 
L 118.369082 310.123011 
L 120.420972 312.977989 
L 122.472861 320.655954 
L 124.524751 320.295609 
L 126.576641 325.049268 
L 128.62853 339.947848 
L 130.68042 343.301739 
L 132.73231 347.431759 
L 134.784199 349.094864 
L 136.836089 358.754673 
L 138.887979 366.169298 
L 140.939868 362.455066 
L 142.991758 367.693837 
L 145.043648 373.944267 
L 147.095538 370.13303 
L 149.147427 361.942273 
L 151.199317 357.673685 
L 153.251207 355.858131 
L 155.303096 353.16944 
L 157.354986 348.498905 
L 159.406876 352.157738 
L 161.458765 356.99456 
L 163.510655 363.688544 
L 165.562545 386.472937 
L 167.614434 384.657383 
L 169.666324 385.197898 
L 171.718214 364.256736 
L 173.770103 361.096858 
L 175.821993 366.224742 
L 177.873883 372.655386 
L 179.925772 368.954993 
L 181.977662 368.275913 
L 184.029552 377.616938 
L 186.081442 376.535953 
L 188.133331 372.946403 
L 190.185221 375.053018 
L 192.237111 387.747979 
L 194.289 384.158473 
L 196.34089 397.186053 
L 198.39278 392.182896 
L 200.444669 385.322624 
L 202.496559 382.661656 
L 206.600338 409.035598 
L 208.652228 408.744539 
L 210.704118 405.598541 
L 212.756007 405.487653 
L 214.807897 388.371615 
L 216.859787 394.511245 
L 218.911676 413.19334 
L 220.963566 413.733855 
L 223.015456 427.454356 
L 225.067346 433.011866 
L 227.119235 443.960597 
L 229.171125 452.082027 
L 231.223015 434.092896 
L 233.274904 435.645113 
L 235.326794 421.093039 
L 239.430573 413.955589 
L 241.482463 412.320206 
L 243.534353 425.555678 
L 245.586242 434.536406 
L 247.638132 439.539519 
L 249.690022 437.225052 
L 251.741911 419.568543 
L 253.793801 427.925588 
L 255.845691 426.401093 
L 259.94947 424.169751 
L 262.00136 412.985447 
L 264.053249 407.220044 
L 266.105139 402.23077 
L 270.208919 393.679672 
L 272.260808 385.987866 
L 274.312698 391.58694 
L 276.364588 403.547373 
L 278.416477 408.051576 
L 280.468367 410.601657 
L 282.520257 423.532231 
L 284.572146 432.998028 
L 286.624036 439.70585 
L 288.675926 441.368956 
L 290.727815 456.419943 
L 292.779705 452.262201 
L 294.831595 451.319781 
L 296.883484 448.963754 
L 298.935374 451.79101 
L 300.987264 461.270648 
L 303.039153 464.735427 
L 305.091043 461.908168 
L 309.194823 436.351918 
L 311.246712 437.252774 
L 313.298602 452.109749 
L 315.350492 442.602392 
L 317.402381 443.267634 
L 319.454271 444.667402 
L 321.506161 456.156603 
L 323.55805 452.996725 
L 325.60994 459.23336 
L 327.66183 469.988037 
L 329.713719 466.883603 
L 331.765609 461.977453 
L 333.817499 468.629829 
L 335.869388 469.780144 
L 337.921278 473.092471 
L 339.973168 476.099901 
L 342.025057 458.166214 
L 344.076947 463.016877 
L 346.128837 475.822723 
L 348.180727 490.499527 
L 350.232616 477.749123 
L 352.284506 485.524136 
L 354.336396 500.076211 
L 356.388285 504.719024 
L 358.440175 491.428108 
L 360.492065 489.293812 
L 362.543954 499.383248 
L 364.595844 511.038783 
L 366.647734 519.395828 
L 368.699623 526.838178 
L 370.751513 519.894738 
L 372.803403 512.14749 
L 374.855292 524.925617 
L 376.907182 520.629306 
L 378.959072 518.647421 
L 381.010961 544.20367 
L 383.062851 544.50857 
L 385.114741 540.129094 
L 387.16663 537.024618 
L 389.21852 558.714184 
L 391.27041 552.158813 
L 393.3223 553.392249 
L 395.374189 561.181099 
L 397.426079 574.679869 
L 399.477969 598.628457 
L 401.529858 574.125515 
L 403.581748 578.18625 
L 405.633638 559.781333 
L 407.685527 550.689717 
L 409.737417 548.361412 
L 411.789307 533.351947 
L 413.841196 534.474537 
L 415.893086 528.293388 
L 417.944976 523.013055 
L 419.996865 544.342238 
L 422.048755 521.627128 
L 424.100645 526.907461 
L 426.152534 512.396947 
L 428.204424 526.879739 
L 430.256314 506.063348 
L 432.308204 498.621001 
L 434.360093 505.564397 
L 436.411983 504.913036 
L 438.463873 476.834428 
L 440.515762 487.214922 
L 442.567652 511.551576 
L 444.619542 526.408551 
L 446.671431 529.942612 
L 448.723321 529.776322 
L 450.775211 532.603581 
L 452.8271 525.965041 
L 454.87899 518.550416 
L 456.93088 542.374277 
L 458.982769 552.921059 
L 461.034659 551.770746 
L 463.086549 576.994377 
L 465.138438 581.734194 
L 467.190328 609.909768 
L 469.242218 586.460131 
L 471.294108 587.402551 
L 473.345997 584.658458 
L 475.397887 566.156534 
L 477.449777 568.415556 
L 479.501666 565.117065 
L 481.553556 551.091666 
L 483.605446 555.498862 
L 485.657335 538.798611 
L 487.709225 547.127934 
L 489.761115 556.45512 
L 491.813004 575.400554 
L 493.864894 581.692592 
L 495.916784 589.578449 
L 497.968673 585.503873 
L 500.020563 581.914365 
L 502.072453 588.746872 
L 504.124342 590.008076 
L 506.176232 571.908054 
L 508.228122 571.755605 
L 510.280011 564.881492 
L 512.331901 550.966895 
L 514.383791 571.21509 
L 516.435681 564.160806 
L 518.48757 585.697882 
L 520.53946 573.779054 
L 522.59135 577.728901 
L 524.643239 583.078519 
L 526.695129 608.191261 
L 528.747019 621.565301 
L 530.798908 614.511017 
L 532.850798 620.498155 
L 534.902688 633.137671 
L 536.954577 595.759595 
L 539.006467 596.965352 
L 541.058357 610.879907 
L 543.110246 644.987216 
L 545.162136 638.071542 
L 547.214026 642.049113 
L 549.265915 613.471593 
L 551.317805 589.578449 
L 553.369695 585.836492 
L 555.421585 572.115949 
L 557.473474 569.260968 
L 559.525364 598.476008 
L 561.577254 570.120222 
L 563.629143 559.975342 
L 565.681033 542.845465 
L 567.732923 542.734577 
L 569.784812 527.461856 
L 571.836702 493.229778 
L 573.888592 521.571726 
L 575.940481 503.735002 
L 577.992371 503.277653 
L 580.044261 505.619841 
L 582.09615 490.721303 
L 584.14804 545.132206 
L 586.19993 531.550273 
L 588.251819 513.491815 
L 590.303709 508.849044 
L 592.355599 499.036745 
L 594.407489 476.072179 
L 596.459378 485.468693 
L 598.511268 512.521715 
L 600.563158 531.716605 
L 602.615047 499.092189 
L 604.666937 473.716152 
L 606.718827 541.653589 
L 608.770716 545.839053 
L 610.822606 533.185657 
L 612.874496 522.236926 
L 614.926385 487.311927 
L 616.978275 465.553117 
L 619.030165 460.591565 
L 621.082054 431.168632 
L 623.133944 446.690849 
L 625.185834 473.743874 
L 627.237723 404.392785 
L 629.289613 392.529357 
L 631.341503 398.752111 
L 633.393392 406.845861 
L 635.445282 405.640105 
L 637.497172 379.293926 
L 639.549062 393.250045 
L 641.600951 427.329629 
L 643.652841 387.914269 
L 645.704731 400.484499 
L 647.75662 395.218048 
L 649.80851 400.636948 
L 651.8604 427.786978 
L 653.912289 421.550387 
L 655.964179 419.762553 
L 658.016069 386.084873 
L 660.067958 377.755548 
L 662.119848 358.144872 
L 664.171738 356.980721 
L 666.223627 359.697089 
L 668.275517 345.158854 
L 670.327407 352.36563 
L 672.379296 344.632222 
L 674.431186 332.366889 
L 676.483076 321.861668 
L 678.534966 327.488503 
L 680.586855 329.608915 
L 682.638745 321.986395 
L 684.690635 311.176319 
L 686.742524 294.753243 
L 688.794414 301.211568 
L 690.846304 308.778686 
L 692.898193 305.20302 
L 694.950083 307.656096 
L 697.001973 315.735963 
L 699.053862 337.758109 
L 701.105752 327.751798 
L 703.157642 336.746407 
L 705.209531 360.098994 
L 707.261421 353.363494 
L 709.313311 345.200459 
L 711.3652 332.796516 
L 713.41709 332.228323 
L 715.46898 340.529924 
L 717.52087 319.935268 
L 719.572759 342.608817 
L 721.624649 323.760388 
L 723.676539 340.543807 
L 725.728428 352.06073 
L 727.780318 334.709077 
L 729.832208 262.47533 
L 731.884097 259.481783 
L 733.935987 286.520925 
L 735.987877 278.856841 
L 738.039766 261.97642 
L 740.091656 252.593745 
L 742.143546 251.235582 
L 744.195435 233.246451 
L 746.247325 247.964816 
L 748.299215 257.5415 
L 750.351104 271.345167 
L 752.402994 260.687453 
L 754.454884 272.204421 
L 756.506773 269.917635 
L 758.558663 268.87821 
L 760.610553 238.138675 
L 762.662443 250.196158 
L 764.714332 246.163101 
L 766.766222 244.472357 
L 768.818112 225.388271 
L 770.870001 222.367044 
L 772.921891 212.554746 
L 774.973781 207.911975 
L 777.02567 209.713606 
L 779.07756 235.436187 
L 781.12945 246.177026 
L 783.181339 233.74536 
L 785.233229 228.617435 
L 787.285119 215.96408 
L 789.337008 189.215997 
L 791.388898 208.729626 
L 793.440788 215.548292 
L 795.492677 204.876823 
L 797.544567 189.908918 
L 799.596457 193.789482 
L 801.648347 214.245573 
L 803.700236 224.418132 
L 805.752126 246.980835 
L 807.804016 240.272968 
L 809.855905 239.538444 
L 811.907795 199.887466 
L 813.959685 201.384281 
L 816.011574 197.850219 
L 818.063464 196.561339 
L 820.115354 203.075108 
L 822.167243 193.789482 
L 824.219133 191.100836 
L 826.271023 207.37146 
L 828.322912 193.775643 
L 830.374802 199.333112 
L 832.426692 189.132789 
L 834.478581 177.297169 
L 836.530471 196.159392 
L 838.582361 179.819483 
L 840.634251 205.860806 
L 842.68614 227.785945 
L 844.73803 236.5865 
L 846.78992 247.756965 
L 848.841809 249.170572 
L 850.893699 244.389149 
L 852.945589 232.595048 
L 854.997478 256.446632 
L 857.049368 254.201451 
L 859.101258 378.753412 
L 861.153147 371.144733 
L 863.205037 382.495368 
L 865.256927 375.815267 
L 867.308816 367.790842 
L 869.360706 351.672667 
L 871.412596 358.449772 
L 873.464485 353.432777 
L 875.516375 340.945712 
L 877.568265 348.886969 
L 879.620154 371.020003 
L 881.672044 356.35704 
L 883.723934 356.343202 
L 885.775824 391.323645 
L 887.827713 394.635972 
L 889.879603 386.320488 
L 891.931493 366.765256 
L 893.983382 377.034862 
L 896.035272 363.480651 
L 898.087162 400.914126 
L 900.139051 403.062302 
L 902.190941 393.139157 
L 904.242831 419.873441 
L 906.29472 394.857706 
L 908.34661 387.803422 
L 910.3985 391.72555 
L 912.450389 392.196737 
L 914.502279 428.535386 
L 916.554169 401.191346 
L 918.606058 402.092161 
L 920.657948 381.303492 
L 922.709838 385.599803 
L 924.761728 368.386756 
L 926.813617 348.762242 
L 928.865507 342.927556 
L 930.917397 346.433895 
L 932.969286 358.449772 
L 937.073066 298.010126 
L 939.124955 304.856517 
L 941.176845 296.347021 
L 943.228735 296.416307 
L 945.280624 267.741823 
L 947.332514 264.124551 
L 949.384404 260.839946 
L 951.436293 283.749069 
L 953.488183 279.494319 
L 955.540073 285.689349 
L 957.591962 301.959976 
L 959.643852 306.45034 
L 961.695742 299.396056 
L 963.747632 315.153845 
L 965.799521 286.78422 
L 967.851411 219.706076 
L 969.903301 241.922276 
L 971.95519 238.803917 
L 974.00708 231.236885 
L 976.05897 216.795654 
L 978.110859 205.583586 
L 980.162749 241.437205 
L 982.214639 191.918484 
L 984.266528 169.882457 
L 986.318418 169.134092 
L 988.370308 148.123648 
L 990.422197 118.049354 
L 992.474087 95.639141 
L 994.525977 117.21778 
L 996.577866 105.465282 
L 998.629756 96.498395 
L 1000.681646 126.323235 
L 1002.733535 101.97274 
L 1004.785425 91.231988 
L 1006.837315 51.969034 
L 1008.889205 52.163044 
L 1008.889205 52.163044 
" clip-path="url(#pf5c9765d09)" style="fill: none; stroke: #00ff00; stroke-width: 1.5; stroke-linecap: square"/>
   </g>
   <g id="line2d_12">
    <path d="M 95.798295 247.700332 
L 97.850185 246.063019 
L 99.902075 245.690096 
L 101.953965 247.007153 
L 104.005854 250.126135 
L 106.057744 254.826257 
L 108.109634 260.163184 
L 110.161523 266.571575 
L 112.213413 274.47707 
L 116.317192 292.888749 
L 118.369082 301.232085 
L 120.420972 308.110338 
L 122.472861 313.719966 
L 124.524751 318.673497 
L 126.576641 322.830721 
L 128.62853 325.795513 
L 130.68042 327.904241 
L 134.784199 330.611616 
L 136.836089 331.776511 
L 138.887979 332.448093 
L 140.939868 333.923649 
L 142.991758 336.272082 
L 145.043648 339.647279 
L 147.095538 343.955887 
L 149.147427 348.977543 
L 157.354986 370.788147 
L 159.406876 375.73366 
L 161.458765 379.641534 
L 163.510655 382.024542 
L 165.562545 383.463367 
L 167.614434 383.895897 
L 169.666324 383.489776 
L 171.718214 382.743529 
L 173.770103 382.183293 
L 175.821993 381.78108 
L 177.873883 382.289477 
L 179.925772 383.626026 
L 181.977662 385.4495 
L 184.029552 386.344375 
L 188.133331 387.090471 
L 190.185221 387.721514 
L 192.237111 388.543878 
L 194.289 389.569291 
L 200.444669 393.398165 
L 202.496559 394.510445 
L 206.600338 396.912495 
L 208.652228 398.543845 
L 210.704118 400.427452 
L 212.756007 401.989298 
L 216.859787 404.251691 
L 218.911676 405.919621 
L 223.015456 410.265787 
L 225.067346 412.722433 
L 227.119235 412.841145 
L 229.171125 410.757622 
L 231.223015 408.854046 
L 233.274904 408.150068 
L 235.326794 408.924752 
L 237.378684 411.441857 
L 239.430573 415.830441 
L 243.534353 426.559316 
L 245.586242 431.544141 
L 247.638132 435.215793 
L 249.690022 437.779901 
L 251.741911 439.256961 
L 253.793801 440.116808 
L 255.845691 441.130696 
L 257.89758 442.464764 
L 262.00136 446.334328 
L 264.053249 447.039484 
L 266.105139 446.657466 
L 268.157029 445.731348 
L 272.260808 442.907992 
L 274.312698 440.751897 
L 276.364588 437.9834 
L 278.416477 434.826534 
L 282.520257 427.513622 
L 284.572146 423.459526 
L 286.624036 419.694067 
L 288.675926 416.991603 
L 290.727815 415.316106 
L 292.779705 414.90783 
L 294.831595 416.154657 
L 296.883484 419.170988 
L 298.935374 423.507482 
L 300.987264 428.778213 
L 303.039153 434.790179 
L 305.091043 441.166124 
L 307.142933 447.072357 
L 309.194823 452.57733 
L 311.246712 457.683572 
L 313.298602 462.304645 
L 315.350492 466.462532 
L 317.402381 469.781844 
L 319.454271 471.455876 
L 321.506161 471.065615 
L 323.55805 469.817398 
L 325.60994 468.290867 
L 327.66183 466.422218 
L 329.713719 464.797859 
L 331.765609 463.926724 
L 333.817499 463.914948 
L 335.869388 464.559383 
L 337.921278 465.506159 
L 339.973168 466.99646 
L 342.025057 468.769761 
L 346.128837 472.865273 
L 348.180727 475.17958 
L 350.232616 477.680399 
L 352.284506 479.840741 
L 354.336396 481.393693 
L 356.388285 480.048424 
L 360.492065 471.212977 
L 362.543954 467.793895 
L 364.595844 466.651737 
L 366.647734 468.366634 
L 368.699623 472.729286 
L 372.803403 483.358692 
L 376.907182 494.541832 
L 378.959072 500.583739 
L 381.010961 507.074036 
L 383.062851 513.149405 
L 385.114741 518.416302 
L 387.16663 522.297028 
L 389.21852 524.784054 
L 391.27041 526.59044 
L 401.529858 540.028619 
L 403.581748 542.635916 
L 405.633638 545.605813 
L 407.685527 549.000479 
L 409.737417 552.973716 
L 411.789307 557.310154 
L 413.841196 560.775551 
L 415.893086 562.544178 
L 417.944976 562.321055 
L 419.996865 559.622456 
L 422.048755 555.175105 
L 424.100645 549.676709 
L 428.204424 538.295394 
L 430.256314 533.086061 
L 432.308204 528.871085 
L 436.411983 522.276057 
L 438.463873 519.640767 
L 440.515762 518.010394 
L 444.619542 513.595878 
L 446.671431 511.522991 
L 448.723321 509.253521 
L 452.8271 501.214619 
L 454.87899 498.660007 
L 456.93088 497.226393 
L 458.982769 497.219791 
L 461.034659 497.987786 
L 463.086549 499.561696 
L 465.138438 502.400323 
L 469.242218 507.263755 
L 471.294108 510.932187 
L 477.449777 527.167651 
L 481.553556 540.784261 
L 483.605446 548.000535 
L 485.657335 554.295495 
L 487.709225 558.771697 
L 489.761115 562.135351 
L 491.813004 564.804328 
L 493.864894 566.547105 
L 495.916784 567.77928 
L 497.968673 567.815022 
L 502.072453 565.420363 
L 504.124342 565.594296 
L 506.176232 567.781542 
L 508.228122 571.662913 
L 510.280011 576.002796 
L 512.331901 580.794657 
L 514.383791 586.476251 
L 516.435681 591.75084 
L 518.48757 595.497621 
L 520.53946 596.845508 
L 522.59135 596.181975 
L 524.643239 593.192459 
L 526.695129 589.025971 
L 528.747019 583.867144 
L 532.850798 575.094285 
L 534.902688 571.770901 
L 536.954577 569.629025 
L 539.006467 569.366314 
L 541.058357 570.85944 
L 543.110246 574.235552 
L 545.162136 579.019709 
L 547.214026 584.353529 
L 549.265915 588.05268 
L 551.317805 592.026943 
L 553.369695 596.745236 
L 555.421585 601.135124 
L 557.473474 604.098801 
L 559.525364 604.634683 
L 561.577254 601.488027 
L 563.629143 595.989162 
L 565.681033 588.90268 
L 567.732923 580.872686 
L 569.784812 573.293824 
L 573.888592 556.418386 
L 577.992371 537.236608 
L 582.09615 521.869134 
L 584.14804 513.794541 
L 586.19993 507.003042 
L 588.251819 501.344518 
L 590.303709 496.566687 
L 592.355599 492.639283 
L 594.407489 488.090433 
L 596.459378 485.886645 
L 598.511268 485.659343 
L 600.563158 485.826587 
L 602.615047 485.850265 
L 604.666937 484.829587 
L 606.718827 483.14373 
L 608.770716 482.04944 
L 610.822606 480.732271 
L 612.874496 475.765661 
L 616.978275 461.828193 
L 619.030165 459.077323 
L 621.082054 458.505085 
L 623.133944 459.862243 
L 625.185834 460.070164 
L 627.237723 458.268425 
L 629.289613 452.201676 
L 635.445282 428.859692 
L 637.497172 425.342105 
L 639.549062 419.888997 
L 641.600951 413.403486 
L 643.652841 407.362706 
L 645.704731 403.058908 
L 647.75662 399.456008 
L 653.912289 390.436856 
L 658.016069 381.161137 
L 660.067958 377.067003 
L 662.119848 374.547593 
L 664.171738 374.53707 
L 666.223627 376.015382 
L 668.275517 377.272757 
L 670.327407 376.058126 
L 672.379296 373.655625 
L 674.431186 369.976707 
L 678.534966 361.885702 
L 680.586855 358.091104 
L 682.638745 355.654803 
L 684.690635 353.48722 
L 686.742524 350.820585 
L 688.794414 348.354844 
L 690.846304 346.89357 
L 692.898193 345.721007 
L 694.950083 344.085022 
L 697.001973 341.480625 
L 699.053862 337.850439 
L 701.105752 333.841067 
L 705.209531 327.18067 
L 707.261421 324.530396 
L 709.313311 322.818794 
L 711.3652 322.811779 
L 713.41709 323.816822 
L 715.46898 326.091967 
L 717.52087 329.788424 
L 721.624649 338.820455 
L 723.676539 342.298029 
L 725.728428 344.559018 
L 727.780318 345.965923 
L 729.832208 346.110842 
L 731.884097 345.758966 
L 733.935987 344.663348 
L 735.987877 343.787967 
L 738.039766 343.169251 
L 740.091656 341.862017 
L 742.143546 333.578588 
L 748.299215 292.598358 
L 750.351104 280.313499 
L 752.402994 269.282307 
L 754.454884 259.834609 
L 756.506773 251.976719 
L 758.558663 246.151815 
L 760.610553 242.781779 
L 762.662443 242.420131 
L 764.714332 243.897892 
L 766.766222 246.203329 
L 768.818112 249.551668 
L 770.870001 252.12665 
L 772.921891 252.031039 
L 774.973781 251.019958 
L 779.07756 247.198525 
L 781.12945 243.898142 
L 783.181339 239.075049 
L 787.285119 227.884505 
L 789.337008 223.324443 
L 791.388898 220.387161 
L 793.440788 218.693574 
L 795.492677 217.993579 
L 797.544567 217.761768 
L 799.596457 216.53461 
L 803.700236 210.612141 
L 807.804016 206.316812 
L 809.855905 203.820754 
L 811.907795 201.865289 
L 813.959685 201.105964 
L 816.011574 201.942409 
L 818.063464 204.973598 
L 820.115354 209.022984 
L 822.167243 211.972092 
L 824.219133 211.843758 
L 826.271023 210.221278 
L 828.322912 207.24471 
L 836.530471 194.059514 
L 838.582361 191.630254 
L 842.68614 187.247232 
L 844.73803 184.365272 
L 848.841809 177.705777 
L 850.893699 173.885998 
L 852.945589 171.168752 
L 854.997478 170.064766 
L 857.049368 171.70278 
L 859.101258 176.249764 
L 861.153147 182.816304 
L 865.256927 197.650789 
L 869.360706 212.112752 
L 871.412596 220.718743 
L 873.464485 228.67515 
L 875.516375 237.684982 
L 877.568265 248.818149 
L 881.672044 274.718703 
L 883.723934 287.926599 
L 885.775824 299.739867 
L 887.827713 309.527765 
L 891.931493 325.163068 
L 893.983382 330.587538 
L 896.035272 334.704422 
L 898.087162 339.529219 
L 900.139051 344.77264 
L 902.190941 350.551391 
L 904.242831 354.817605 
L 906.29472 358.376333 
L 908.34661 360.415157 
L 910.3985 363.643982 
L 912.450389 365.06339 
L 914.502279 366.014513 
L 916.554169 367.564684 
L 918.606058 367.677533 
L 920.657948 367.216366 
L 922.709838 366.080208 
L 924.761728 365.531272 
L 926.813617 366.016568 
L 928.865507 366.128315 
L 930.917397 365.18809 
L 932.969286 363.195493 
L 935.021176 361.731612 
L 937.073066 356.091917 
L 939.124955 348.556915 
L 941.176845 339.534982 
L 943.228735 331.792547 
L 945.280624 327.79485 
L 947.332514 314.910944 
L 949.384404 299.41064 
L 951.436293 285.323003 
L 953.488183 274.397444 
L 955.540073 265.661417 
L 957.591962 258.668385 
L 959.643852 253.452576 
L 961.695742 249.82457 
L 963.747632 248.109385 
L 965.799521 247.809523 
L 967.851411 249.202798 
L 969.903301 252.054541 
L 971.95519 255.34866 
L 974.00708 258.8792 
L 976.05897 261.232694 
L 978.110859 259.817371 
L 980.162749 248.937362 
L 984.266528 215.321683 
L 986.318418 200.363275 
L 988.370308 187.719274 
L 990.422197 178.530196 
L 992.474087 174.152536 
L 994.525977 166.072857 
L 996.577866 155.917848 
L 1000.681646 133.32825 
L 1004.785425 107.066699 
L 1006.837315 97.070441 
L 1008.889205 89.768027 
L 1008.889205 89.768027 
" clip-path="url(#pf5c9765d09)" style="fill: none; stroke: #0000ff; stroke-width: 1.5; stroke-linecap: square"/>
   </g>
   <g id="patch_3">
    <path d="M 50.14375 674.638125 
L 50.14375 22.318125 
" style="fill: none; stroke: #000000; stroke-width: 0.8; stroke-linejoin: miter; stroke-linecap: square"/>
   </g>
   <g id="patch_4">
    <path d="M 1054.54375 674.638125 
L 1054.54375 22.318125 
" style="fill: none; stroke: #000000; stroke-width: 0.8; stroke-linejoin: miter; stroke-linecap: square"/>
   </g>
   <g id="patch_5">
    <path d="M 50.14375 674.638125 
L 1054.54375 674.638125 
" style="fill: none; stroke: #000000; stroke-width: 0.8; stroke-linejoin: miter; stroke-linecap: square"/>
   </g>
   <g id="patch_6">
    <path d="M 50.14375 22.318125 
L 1054.54375 22.318125 
" style="fill: none; stroke: #000000; stroke-width: 0.8; stroke-linejoin: miter; stroke-linecap: square"/>
   </g>
   <g id="text_13">
    <!-- Google Trading vs Prediction -->
    <g transform="translate(466.972188 16.318125)scale(0.12 -0.12)">
     <defs>
      <path id="DejaVuSans-47" d="M 3809 666 
L 3809 1919 
L 2778 1919 
L 2778 2438 
L 4434 2438 
L 4434 434 
Q 4069 175 3628 42 
Q 3188 -91 2688 -91 
Q 1594 -91 976 548 
Q 359 1188 359 2328 
Q 359 3472 976 4111 
Q 1594 4750 2688 4750 
Q 3144 4750 3555 4637 
Q 3966 4525 4313 4306 
L 4313 3634 
Q 3963 3931 3569 4081 
Q 3175 4231 2741 4231 
Q 1884 4231 1454 3753 
Q 1025 3275 1025 2328 
Q 1025 1384 1454 906 
Q 1884 428 2741 428 
Q 3075 428 3337 486 
Q 3600 544 3809 666 
z
" transform="scale(0.015625)"/>
      <path id="DejaVuSans-6f" d="M 1959 3097 
Q 1497 3097 1228 2736 
Q 959 2375 959 1747 
Q 959 1119 1226 758 
Q 1494 397 1959 397 
Q 2419 397 2687 759 
Q 2956 1122 2956 1747 
Q 2956 2369 2687 2733 
Q 2419 3097 1959 3097 
z
M 1959 3584 
Q 2709 3584 3137 3096 
Q 3566 2609 3566 1747 
Q 3566 888 3137 398 
Q 2709 -91 1959 -91 
Q 1206 -91 779 398 
Q 353 888 353 1747 
Q 353 2609 779 3096 
Q 1206 3584 1959 3584 
z
" transform="scale(0.015625)"/>
      <path id="DejaVuSans-6c" d="M 603 4863 
L 1178 4863 
L 1178 0 
L 603 0 
L 603 4863 
z
" transform="scale(0.015625)"/>
      <path id="DejaVuSans-76" d="M 191 3500 
L 800 3500 
L 1894 563 
L 2988 3500 
L 3597 3500 
L 2284 0 
L 1503 0 
L 191 3500 
z
" transform="scale(0.015625)"/>
      <path id="DejaVuSans-74" d="M 1172 4494 
L 1172 3500 
L 2356 3500 
L 2356 3053 
L 1172 3053 
L 1172 1153 
Q 1172 725 1289 603 
Q 1406 481 1766 481 
L 2356 481 
L 2356 0 
L 1766 0 
Q 1100 0 847 248 
Q 594 497 594 1153 
L 594 3053 
L 172 3053 
L 172 3500 
L 594 3500 
L 594 4494 
L 1172 4494 
z
" transform="scale(0.015625)"/>
     </defs>
     <use xlink:href="#DejaVuSans-47"/>
     <use xlink:href="#DejaVuSans-6f" x="77.490234"/>
     <use xlink:href="#DejaVuSans-6f" x="138.671875"/>
     <use xlink:href="#DejaVuSans-67" x="199.853516"/>
     <use xlink:href="#DejaVuSans-6c" x="263.330078"/>
     <use xlink:href="#DejaVuSans-65" x="291.113281"/>
     <use xlink:href="#DejaVuSans-20" x="352.636719"/>
     <use xlink:href="#DejaVuSans-54" x="384.423828"/>
     <use xlink:href="#DejaVuSans-72" x="430.757812"/>
     <use xlink:href="#DejaVuSans-61" x="471.871094"/>
     <use xlink:href="#DejaVuSans-64" x="533.150391"/>
     <use xlink:href="#DejaVuSans-69" x="596.626953"/>
     <use xlink:href="#DejaVuSans-6e" x="624.410156"/>
     <use xlink:href="#DejaVuSans-67" x="687.789062"/>
     <use xlink:href="#DejaVuSans-20" x="751.265625"/>
     <use xlink:href="#DejaVuSans-76" x="783.052734"/>
     <use xlink:href="#DejaVuSans-73" x="842.232422"/>
     <use xlink:href="#DejaVuSans-20" x="894.332031"/>
     <use xlink:href="#DejaVuSans-50" x="926.119141"/>
     <use xlink:href="#DejaVuSans-72" x="984.671875"/>
     <use xlink:href="#DejaVuSans-65" x="1023.535156"/>
     <use xlink:href="#DejaVuSans-64" x="1085.058594"/>
     <use xlink:href="#DejaVuSans-69" x="1148.535156"/>
     <use xlink:href="#DejaVuSans-63" x="1176.318359"/>
     <use xlink:href="#DejaVuSans-74" x="1231.298828"/>
     <use xlink:href="#DejaVuSans-69" x="1270.507812"/>
     <use xlink:href="#DejaVuSans-6f" x="1298.291016"/>
     <use xlink:href="#DejaVuSans-6e" x="1359.472656"/>
    </g>
   </g>
   <g id="legend_1">
    <g id="patch_7">
     <path d="M 57.14375 59.674375 
L 166.504688 59.674375 
Q 168.504688 59.674375 168.504688 57.674375 
L 168.504688 29.318125 
Q 168.504688 27.318125 166.504688 27.318125 
L 57.14375 27.318125 
Q 55.14375 27.318125 55.14375 29.318125 
L 55.14375 57.674375 
Q 55.14375 59.674375 57.14375 59.674375 
z
" style="fill: #ffffff; opacity: 0.8; stroke: #cccccc; stroke-linejoin: miter"/>
    </g>
    <g id="line2d_13">
     <path d="M 59.14375 35.416562 
L 69.14375 35.416562 
L 79.14375 35.416562 
" style="fill: none; stroke: #00ff00; stroke-width: 1.5; stroke-linecap: square"/>
    </g>
    <g id="text_14">
     <!-- Adjusted Close -->
     <g transform="translate(87.14375 38.916562)scale(0.1 -0.1)">
      <defs>
       <path id="DejaVuSans-41" d="M 2188 4044 
L 1331 1722 
L 3047 1722 
L 2188 4044 
z
M 1831 4666 
L 2547 4666 
L 4325 0 
L 3669 0 
L 3244 1197 
L 1141 1197 
L 716 0 
L 50 0 
L 1831 4666 
z
" transform="scale(0.015625)"/>
       <path id="DejaVuSans-6a" d="M 603 3500 
L 1178 3500 
L 1178 -63 
Q 1178 -731 923 -1031 
Q 669 -1331 103 -1331 
L -116 -1331 
L -116 -844 
L 38 -844 
Q 366 -844 484 -692 
Q 603 -541 603 -63 
L 603 3500 
z
M 603 4863 
L 1178 4863 
L 1178 4134 
L 603 4134 
L 603 4863 
z
" transform="scale(0.015625)"/>
       <path id="DejaVuSans-75" d="M 544 1381 
L 544 3500 
L 1119 3500 
L 1119 1403 
Q 1119 906 1312 657 
Q 1506 409 1894 409 
Q 2359 409 2629 706 
Q 2900 1003 2900 1516 
L 2900 3500 
L 3475 3500 
L 3475 0 
L 2900 0 
L 2900 538 
Q 2691 219 2414 64 
Q 2138 -91 1772 -91 
Q 1169 -91 856 284 
Q 544 659 544 1381 
z
M 1991 3584 
L 1991 3584 
z
" transform="scale(0.015625)"/>
       <path id="DejaVuSans-43" d="M 4122 4306 
L 4122 3641 
Q 3803 3938 3442 4084 
Q 3081 4231 2675 4231 
Q 1875 4231 1450 3742 
Q 1025 3253 1025 2328 
Q 1025 1406 1450 917 
Q 1875 428 2675 428 
Q 3081 428 3442 575 
Q 3803 722 4122 1019 
L 4122 359 
Q 3791 134 3420 21 
Q 3050 -91 2638 -91 
Q 1578 -91 968 557 
Q 359 1206 359 2328 
Q 359 3453 968 4101 
Q 1578 4750 2638 4750 
Q 3056 4750 3426 4639 
Q 3797 4528 4122 4306 
z
" transform="scale(0.015625)"/>
      </defs>
      <use xlink:href="#DejaVuSans-41"/>
      <use xlink:href="#DejaVuSans-64" x="66.658203"/>
      <use xlink:href="#DejaVuSans-6a" x="130.134766"/>
      <use xlink:href="#DejaVuSans-75" x="157.917969"/>
      <use xlink:href="#DejaVuSans-73" x="221.296875"/>
      <use xlink:href="#DejaVuSans-74" x="273.396484"/>
      <use xlink:href="#DejaVuSans-65" x="312.605469"/>
      <use xlink:href="#DejaVuSans-64" x="374.128906"/>
      <use xlink:href="#DejaVuSans-20" x="437.605469"/>
      <use xlink:href="#DejaVuSans-43" x="469.392578"/>
      <use xlink:href="#DejaVuSans-6c" x="539.216797"/>
      <use xlink:href="#DejaVuSans-6f" x="567"/>
      <use xlink:href="#DejaVuSans-73" x="628.181641"/>
      <use xlink:href="#DejaVuSans-65" x="680.28125"/>
     </g>
    </g>
    <g id="line2d_14">
     <path d="M 59.14375 50.094687 
L 69.14375 50.094687 
L 79.14375 50.094687 
" style="fill: none; stroke: #0000ff; stroke-width: 1.5; stroke-linecap: square"/>
    </g>
    <g id="text_15">
     <!-- Predicted Close -->
     <g transform="translate(87.14375 53.594687)scale(0.1 -0.1)">
      <use xlink:href="#DejaVuSans-50"/>
      <use xlink:href="#DejaVuSans-72" x="58.552734"/>
      <use xlink:href="#DejaVuSans-65" x="97.416016"/>
      <use xlink:href="#DejaVuSans-64" x="158.939453"/>
      <use xlink:href="#DejaVuSans-69" x="222.416016"/>
      <use xlink:href="#DejaVuSans-63" x="250.199219"/>
      <use xlink:href="#DejaVuSans-74" x="305.179688"/>
      <use xlink:href="#DejaVuSans-65" x="344.388672"/>
      <use xlink:href="#DejaVuSans-64" x="405.912109"/>
      <use xlink:href="#DejaVuSans-20" x="469.388672"/>
      <use xlink:href="#DejaVuSans-43" x="501.175781"/>
      <use xlink:href="#DejaVuSans-6c" x="571"/>
      <use xlink:href="#DejaVuSans-6f" x="598.783203"/>
      <use xlink:href="#DejaVuSans-73" x="659.964844"/>
      <use xlink:href="#DejaVuSans-65" x="712.064453"/>
     </g>
    </g>
   </g>
  </g>
 </g>
 <defs>
  <clipPath id="pf5c9765d09">
   <rect x="50.14375" y="22.318125" width="1004.4" height="652.32"/>
  </clipPath>
 </defs>
</svg>
